<svg xmlns="http://www.w3.org/2000/svg" xmlns:xlink="http://www.w3.org/1999/xlink" viewBox="0 0 348.92 442.99"><defs><style>.cls-1{fill:#40b881;}.cls-2{clip-path:url(#clip-path);}</style><clipPath id="clip-path"><path class="cls-1" d="M323.22,0,281.91,268.82V0H242.85L226,81l-.35,1.76-10.76,49.73-24-122.64H162.4L136.75,145,123,81l-.66-3.09L106.06,0H67V240.78L26.23,0H0L67,385,77.1,443h25.7l0-.13c15.78-.53,29.09-2.65,40-6.31,12.65-4.32,22.79-10.84,30.38-19.66.44-.48.83-1,1.23-1.5a12,12,0,0,0,1.19,1.5c7.58,8.82,17.72,15.34,30.37,19.66q18.45,6.22,46.07,6.4v0h25.17l4.63-28.61L348.92,0ZM176.64,55.24l26,133.7v0l-2.29,10.63H149.13ZM97.07,104.39l21.47,95.22H97.07Zm0,249.86V222.57h25Zm61.1,21a48.9,48.9,0,0,1-4.59,19.84Q149,405,132.73,410.76c-6.21,2.21-14.41,3.8-24.68,4.77l27.11-142.3,23,102ZM153.5,222.57h41.92l-21,97.12Zm62.68,188.19q-16.26-5.81-20.85-15.64a49.09,49.09,0,0,1-4.58-19.89l25.87-114.66L246.86,416Q227.23,414.71,216.18,410.76Zm36.19-86.49-19.88-101.7h19.88Zm0-124.66h-22l22-97.6Z"/></clipPath></defs><g id="Layer_2" data-name="Layer 2"><g id="Layer_1-2" data-name="Layer 1"><path class="cls-1" d="M323.22,0,281.91,268.82V0H242.85L226,81l-.35,1.76-10.76,49.73-24-122.64H162.4L136.75,145,123,81l-.66-3.09L106.06,0H67V240.78L26.23,0H0L67,385,77.1,443h25.7l0-.13c15.78-.53,29.09-2.65,40-6.31,12.65-4.32,22.79-10.84,30.38-19.66.44-.48.83-1,1.23-1.5a12,12,0,0,0,1.19,1.5c7.58,8.82,17.72,15.34,30.37,19.66q18.45,6.22,46.07,6.4v0h25.17l4.63-28.61L348.92,0ZM176.64,55.24l26,133.7v0l-2.29,10.63H149.13ZM97.07,104.39l21.47,95.22H97.07Zm0,249.86V222.57h25Zm61.1,21a48.9,48.9,0,0,1-4.59,19.84Q149,405,132.73,410.76c-6.21,2.21-14.41,3.8-24.68,4.77l27.11-142.3,23,102ZM153.5,222.57h41.92l-21,97.12Zm62.68,188.19q-16.26-5.81-20.85-15.64a49.09,49.09,0,0,1-4.58-19.89l25.87-114.66L246.86,416Q227.23,414.71,216.18,410.76Zm36.19-86.49-19.88-101.7h19.88Zm0-124.66h-22l22-97.6Z"/><g class="cls-2"><polygon class="cls-1" points="230.38 198.66 231.23 199.61 230.38 199.61 230.38 198.66"/><polygon class="cls-1" points="230.38 195.59 234.02 199.61 231.23 199.61 230.38 198.66 230.38 195.59"/><polygon class="cls-1" points="230.38 192.51 236.8 199.61 234.02 199.61 230.38 195.59 230.38 192.51"/><polygon class="cls-1" points="230.38 189.44 239.59 199.61 236.8 199.61 230.38 192.51 230.38 189.44"/><polygon class="cls-1" points="230.38 186.37 242.38 199.61 239.59 199.61 230.38 189.44 230.38 186.37"/><polygon class="cls-1" points="230.38 183.29 245.16 199.61 242.38 199.61 230.38 186.37 230.38 183.29"/><polygon class="cls-1" points="230.38 180.22 247.95 199.61 245.16 199.61 230.38 183.29 230.38 180.22"/><polygon class="cls-1" points="230.38 177.14 250.74 199.61 247.95 199.61 230.38 180.22 230.38 177.14"/><polygon class="cls-1" points="230.38 174.07 252.38 198.34 252.38 199.61 250.74 199.61 230.38 177.14 230.38 174.07"/><polygon class="cls-1" points="230.38 170.99 252.38 195.27 252.38 198.34 230.38 174.07 230.38 170.99"/><polygon class="cls-1" points="230.38 167.92 252.38 192.19 252.38 195.27 230.38 170.99 230.38 167.92"/><polygon class="cls-1" points="230.38 164.84 252.38 189.12 252.38 192.19 230.38 167.92 230.38 164.84"/><polygon class="cls-1" points="230.38 161.77 252.38 186.04 252.38 189.12 230.38 164.84 230.38 161.77"/><polygon class="cls-1" points="230.38 158.69 252.38 182.97 252.38 186.04 230.38 161.77 230.38 158.69"/><polygon class="cls-1" points="230.38 155.62 252.38 179.89 252.38 182.97 230.38 158.69 230.38 155.62"/><polygon class="cls-1" points="230.38 152.54 252.38 176.82 252.38 179.89 230.38 155.62 230.38 152.54"/><polygon class="cls-1" points="230.38 149.47 252.38 173.74 252.38 176.82 230.38 152.54 230.38 149.47"/><polygon class="cls-1" points="230.38 146.39 252.38 170.67 252.38 173.74 230.38 149.47 230.38 146.39"/><polygon class="cls-1" points="230.38 143.32 252.38 167.59 252.38 170.67 230.38 146.39 230.38 143.32"/><polygon class="cls-1" points="230.38 140.24 252.38 164.52 252.38 167.59 230.38 143.32 230.38 140.24"/><polygon class="cls-1" points="230.38 137.17 252.38 161.45 252.38 164.52 230.38 140.24 230.38 137.17"/><polygon class="cls-1" points="230.38 134.09 252.38 158.37 252.38 161.45 230.38 137.17 230.38 134.09"/><polygon class="cls-1" points="230.38 131.02 252.38 155.3 252.38 158.37 230.38 134.09 230.38 131.02"/><polygon class="cls-1" points="230.38 127.94 252.38 152.22 252.38 155.3 230.38 131.02 230.38 127.94"/><polygon class="cls-1" points="230.38 124.87 252.38 149.15 252.38 152.22 230.38 127.94 230.38 124.87"/><polygon class="cls-1" points="230.38 121.8 252.38 146.07 252.38 149.15 230.38 124.87 230.38 121.8"/><polygon class="cls-1" points="230.38 119.24 230.64 119.01 252.38 143 252.38 146.07 230.38 121.8 230.38 119.24"/><polygon class="cls-1" points="230.64 119.01 232.17 117.62 252.38 139.92 252.38 143 230.64 119.01"/><polygon class="cls-1" points="232.17 117.62 233.7 116.23 252.38 136.85 252.38 139.92 232.17 117.62"/><polygon class="cls-1" points="233.7 116.23 235.23 114.85 252.38 133.77 252.38 136.85 233.7 116.23"/><polygon class="cls-1" points="235.23 114.85 236.76 113.46 252.38 130.7 252.38 133.77 235.23 114.85"/><polygon class="cls-1" points="236.76 113.46 238.29 112.08 252.38 127.62 252.38 130.7 236.76 113.46"/><polygon class="cls-1" points="238.29 112.08 239.82 110.69 252.38 124.55 252.38 127.62 238.29 112.08"/><polygon class="cls-1" points="239.82 110.69 241.35 109.3 252.38 121.47 252.38 124.55 239.82 110.69"/><polygon class="cls-1" points="241.35 109.3 242.88 107.92 252.38 118.4 252.38 121.47 241.35 109.3"/><polygon class="cls-1" points="242.88 107.92 244.41 106.53 252.38 115.33 252.38 118.4 242.88 107.92"/><polygon class="cls-1" points="244.41 106.53 245.94 105.14 252.38 112.25 252.38 115.33 244.41 106.53"/><polygon class="cls-1" points="245.94 105.14 247.47 103.76 252.38 109.17 252.38 112.25 245.94 105.14"/><polygon class="cls-1" points="247.47 103.76 249 102.37 252.38 106.1 252.38 109.17 247.47 103.76"/><polygon class="cls-1" points="249 102.37 249.4 102.01 251.45 102.01 252.38 103.03 252.38 106.1 249 102.37"/><polygon class="cls-1" points="252.38 103.03 251.45 102.01 252.38 102.01 252.38 103.03"/><polygon class="cls-1" points="232.49 323.99 232.75 324.27 232.49 324.27 232.49 323.99"/><polygon class="cls-1" points="232.49 320.91 235.54 324.27 232.75 324.27 232.49 323.99 232.49 320.91"/><polygon class="cls-1" points="232.49 317.84 238.32 324.27 235.54 324.27 232.49 320.91 232.49 317.84"/><polygon class="cls-1" points="232.49 314.76 241.11 324.27 238.32 324.27 232.49 317.84 232.49 314.76"/><polygon class="cls-1" points="232.49 311.69 243.9 324.27 241.11 324.27 232.49 314.76 232.49 311.69"/><polygon class="cls-1" points="232.49 308.62 246.68 324.27 243.9 324.27 232.49 311.69 232.49 308.62"/><polygon class="cls-1" points="232.49 305.54 249.47 324.27 246.68 324.27 232.49 308.62 232.49 305.54"/><polygon class="cls-1" points="232.49 302.46 252.25 324.27 249.47 324.27 232.49 305.54 232.49 302.46"/><polygon class="cls-1" points="232.49 299.39 252.38 321.33 252.38 324.27 252.25 324.27 232.49 302.46 232.49 299.39"/><polygon class="cls-1" points="232.49 296.32 252.38 318.26 252.38 321.33 232.49 299.39 232.49 296.32"/><polygon class="cls-1" points="232.49 293.24 252.38 315.18 252.38 318.26 232.49 296.32 232.49 293.24"/><polygon class="cls-1" points="232.49 290.17 252.38 312.11 252.38 315.18 232.49 293.24 232.49 290.17"/><polygon class="cls-1" points="232.49 287.09 252.38 309.03 252.38 312.11 232.49 290.17 232.49 287.09"/><polygon class="cls-1" points="232.49 284.02 252.38 305.96 252.38 309.03 232.49 287.09 232.49 284.02"/><polygon class="cls-1" points="232.49 280.94 252.38 302.88 252.38 305.96 232.49 284.02 232.49 280.94"/><polygon class="cls-1" points="232.49 277.87 252.38 299.81 252.38 302.88 232.49 280.94 232.49 277.87"/><polygon class="cls-1" points="232.49 274.79 252.38 296.73 252.38 299.81 232.49 277.87 232.49 274.79"/><polygon class="cls-1" points="232.49 271.72 252.38 293.66 252.38 296.73 232.49 274.79 232.49 271.72"/><polygon class="cls-1" points="232.49 268.64 252.38 290.58 252.38 293.66 232.49 271.72 232.49 268.64"/><polygon class="cls-1" points="232.49 265.57 252.38 287.51 252.38 290.58 232.49 268.64 232.49 265.57"/><polygon class="cls-1" points="232.49 262.49 252.38 284.44 252.38 287.51 232.49 265.57 232.49 262.49"/><polygon class="cls-1" points="232.49 259.42 252.38 281.36 252.38 284.44 232.49 262.49 232.49 259.42"/><polygon class="cls-1" points="232.49 256.34 252.38 278.29 252.38 281.36 232.49 259.42 232.49 256.34"/><polygon class="cls-1" points="232.49 253.27 252.38 275.21 252.38 278.29 232.49 256.34 232.49 253.27"/><polygon class="cls-1" points="232.49 250.19 252.38 272.14 252.38 275.21 232.49 253.27 232.49 250.19"/><polygon class="cls-1" points="232.49 247.12 252.38 269.06 252.38 272.14 232.49 250.19 232.49 247.12"/><polygon class="cls-1" points="232.49 244.04 252.38 265.99 252.38 269.06 232.49 247.12 232.49 244.04"/><polygon class="cls-1" points="232.49 240.97 252.38 262.91 252.38 265.99 232.49 244.04 232.49 240.97"/><polygon class="cls-1" points="232.49 237.9 252.38 259.84 252.38 262.91 232.49 240.97 232.49 237.9"/><polygon class="cls-1" points="232.49 234.82 252.38 256.76 252.38 259.84 232.49 237.9 232.49 234.82"/><polygon class="cls-1" points="232.49 231.75 252.38 253.69 252.38 256.76 232.49 234.82 232.49 231.75"/><polygon class="cls-1" points="232.49 228.67 252.38 250.61 252.38 253.69 232.49 231.75 232.49 228.67"/><polygon class="cls-1" points="232.49 225.6 252.38 247.54 252.38 250.61 232.49 228.67 232.49 225.6"/><polygon class="cls-1" points="232.54 222.57 252.38 244.46 252.38 247.54 232.49 225.6 232.49 222.57 232.54 222.57"/><polygon class="cls-1" points="235.33 222.57 252.38 241.39 252.38 244.46 232.54 222.57 235.33 222.57"/><polygon class="cls-1" points="238.11 222.57 252.38 238.31 252.38 241.39 235.33 222.57 238.11 222.57"/><polygon class="cls-1" points="240.9 222.57 252.38 235.24 252.38 238.31 238.11 222.57 240.9 222.57"/><polygon class="cls-1" points="243.69 222.57 252.38 232.16 252.38 235.24 240.9 222.57 243.69 222.57"/><polygon class="cls-1" points="246.47 222.57 252.38 229.09 252.38 232.16 243.69 222.57 246.47 222.57"/><polygon class="cls-1" points="249.26 222.57 252.38 226.01 252.38 229.09 246.47 222.57 249.26 222.57"/><polygon class="cls-1" points="252.04 222.57 252.38 222.94 252.38 226.01 249.26 222.57 252.04 222.57"/><polygon class="cls-1" points="252.38 222.94 252.04 222.57 252.38 222.57 252.38 222.94"/><polygon class="cls-1" points="190.75 413.21 193.25 415.97 190.75 415.97 190.75 413.21"/><polygon class="cls-1" points="190.75 410.13 196.03 415.97 193.25 415.97 190.75 413.21 190.75 410.13"/><polygon class="cls-1" points="190.75 407.06 198.82 415.97 196.03 415.97 190.75 410.13 190.75 407.06"/><polygon class="cls-1" points="190.75 403.98 201.61 415.97 198.82 415.97 190.75 407.06 190.75 403.98"/><polygon class="cls-1" points="190.75 400.91 204.39 415.97 201.61 415.97 190.75 403.98 190.75 400.91"/><polygon class="cls-1" points="190.75 397.83 207.18 415.97 204.39 415.97 190.75 400.91 190.75 397.83"/><polygon class="cls-1" points="190.75 394.76 209.97 415.97 207.18 415.97 190.75 397.83 190.75 394.76"/><polygon class="cls-1" points="190.75 391.68 212.75 415.97 209.97 415.97 190.75 394.76 190.75 391.68"/><polygon class="cls-1" points="190.75 388.61 215.54 415.97 212.75 415.97 190.75 391.68 190.75 388.61"/><polygon class="cls-1" points="190.75 385.53 218.32 415.97 215.54 415.97 190.75 388.61 190.75 385.53"/><polygon class="cls-1" points="190.75 382.46 221.11 415.97 218.32 415.97 190.75 385.53 190.75 382.46"/><polygon class="cls-1" points="190.75 379.38 223.9 415.97 221.11 415.97 190.75 382.46 190.75 379.38"/><polygon class="cls-1" points="190.75 376.31 226.68 415.97 223.9 415.97 190.75 379.38 190.75 376.31"/><polygon class="cls-1" points="190.75 373.23 229.47 415.97 226.68 415.97 190.75 376.31 190.75 373.23"/><polygon class="cls-1" points="190.75 370.16 232.25 415.97 229.47 415.97 190.75 373.23 190.75 370.16"/><polygon class="cls-1" points="190.75 367.08 235.04 415.97 232.25 415.97 190.75 370.16 190.75 367.08"/><polygon class="cls-1" points="190.75 364.01 237.83 415.97 235.04 415.97 190.75 367.08 190.75 364.01"/><polygon class="cls-1" points="190.75 360.94 240.61 415.97 237.83 415.97 190.75 364.01 190.75 360.94"/><polygon class="cls-1" points="190.75 357.86 243.4 415.97 240.61 415.97 190.75 360.94 190.75 357.86"/><polygon class="cls-1" points="190.75 354.79 246.18 415.97 243.4 415.97 190.75 357.86 190.75 354.79"/><polygon class="cls-1" points="190.75 351.71 246.86 413.64 246.86 415.97 246.18 415.97 190.75 354.79 190.75 351.71"/><polygon class="cls-1" points="190.75 348.64 246.86 410.57 246.86 413.64 190.75 351.71 190.75 348.64"/><polygon class="cls-1" points="190.75 345.56 246.86 407.49 246.86 410.57 190.75 348.64 190.75 345.56"/><polygon class="cls-1" points="190.75 342.49 246.86 404.42 246.86 407.49 190.75 345.56 190.75 342.49"/><polygon class="cls-1" points="190.75 339.41 246.86 401.34 246.86 404.42 190.75 342.49 190.75 339.41"/><polygon class="cls-1" points="190.75 336.34 246.86 398.27 246.86 401.34 190.75 339.41 190.75 336.34"/><polygon class="cls-1" points="190.75 333.26 246.86 395.19 246.86 398.27 190.75 336.34 190.75 333.26"/><polygon class="cls-1" points="190.75 330.19 246.86 392.12 246.86 395.19 190.75 333.26 190.75 330.19"/><polygon class="cls-1" points="190.75 327.11 246.86 389.04 246.86 392.12 190.75 330.19 190.75 327.11"/><polygon class="cls-1" points="190.75 324.04 246.86 385.97 246.86 389.04 190.75 327.11 190.75 324.04"/><polygon class="cls-1" points="190.75 320.96 246.86 382.89 246.86 385.97 190.75 324.04 190.75 320.96"/><polygon class="cls-1" points="190.75 317.89 246.86 379.82 246.86 382.89 190.75 320.96 190.75 317.89"/><polygon class="cls-1" points="190.75 314.81 246.86 376.75 246.86 379.82 190.75 317.89 190.75 314.81"/><polygon class="cls-1" points="190.75 311.74 246.86 373.67 246.86 376.75 190.75 314.81 190.75 311.74"/><polygon class="cls-1" points="190.75 308.67 246.86 370.6 246.86 373.67 190.75 311.74 190.75 308.67"/><polygon class="cls-1" points="190.75 305.59 246.86 367.52 246.86 370.6 190.75 308.67 190.75 305.59"/><polygon class="cls-1" points="190.75 302.51 246.86 364.45 246.86 367.52 190.75 305.59 190.75 302.51"/><polygon class="cls-1" points="190.75 299.44 246.86 361.37 246.86 364.45 190.75 302.51 190.75 299.44"/><polygon class="cls-1" points="190.75 296.37 246.86 358.3 246.86 361.37 190.75 299.44 190.75 296.37"/><polygon class="cls-1" points="190.75 293.29 246.86 355.22 246.86 358.3 190.75 296.37 190.75 293.29"/><polygon class="cls-1" points="190.75 290.22 246.86 352.15 246.86 355.22 190.75 293.29 190.75 290.22"/><polygon class="cls-1" points="190.75 287.14 246.86 349.07 246.86 352.15 190.75 290.22 190.75 287.14"/><polygon class="cls-1" points="190.75 284.07 246.86 346 246.86 349.07 190.75 287.14 190.75 284.07"/><polygon class="cls-1" points="190.75 281.32 190.91 281.17 246.86 342.92 246.86 346 190.75 284.07 190.75 281.32"/><polygon class="cls-1" points="190.91 281.17 192.44 279.79 246.86 339.85 246.86 342.92 190.91 281.17"/><polygon class="cls-1" points="192.44 279.79 193.97 278.4 246.86 336.77 246.86 339.85 192.44 279.79"/><polygon class="cls-1" points="193.97 278.4 195.5 277.01 246.86 333.7 246.86 336.77 193.97 278.4"/><polygon class="cls-1" points="195.5 277.01 197.03 275.63 246.86 330.62 246.86 333.7 195.5 277.01"/><polygon class="cls-1" points="197.03 275.63 198.56 274.24 246.86 327.55 246.86 330.62 197.03 275.63"/><polygon class="cls-1" points="198.56 274.24 200.09 272.86 246.86 324.48 246.86 327.55 198.56 274.24"/><polygon class="cls-1" points="200.09 272.86 201.62 271.47 246.86 321.4 246.86 324.48 200.09 272.86"/><polygon class="cls-1" points="201.62 271.47 203.15 270.08 246.86 318.32 246.86 321.4 201.62 271.47"/><polygon class="cls-1" points="203.15 270.08 204.68 268.7 246.86 315.25 246.86 318.32 203.15 270.08"/><polygon class="cls-1" points="204.68 268.7 206.21 267.31 246.86 312.18 246.86 315.25 204.68 268.7"/><polygon class="cls-1" points="206.21 267.31 207.74 265.92 246.86 309.1 246.86 312.18 206.21 267.31"/><polygon class="cls-1" points="207.74 265.92 209.27 264.54 246.86 306.03 246.86 309.1 207.74 265.92"/><polygon class="cls-1" points="209.27 264.54 210.8 263.15 246.86 302.95 246.86 306.03 209.27 264.54"/><polygon class="cls-1" points="210.8 263.15 212.33 261.76 246.86 299.88 246.86 302.95 210.8 263.15"/><polygon class="cls-1" points="212.33 261.76 213.64 260.57 214.04 260.57 246.86 296.8 246.86 299.88 212.33 261.76"/><polygon class="cls-1" points="216.82 260.57 246.86 293.73 246.86 296.8 214.04 260.57 216.82 260.57"/><polygon class="cls-1" points="219.61 260.57 246.86 290.65 246.86 293.73 216.82 260.57 219.61 260.57"/><polygon class="cls-1" points="222.4 260.57 246.86 287.58 246.86 290.65 219.61 260.57 222.4 260.57"/><polygon class="cls-1" points="225.18 260.57 246.86 284.5 246.86 287.58 222.4 260.57 225.18 260.57"/><polygon class="cls-1" points="227.97 260.57 246.86 281.43 246.86 284.5 225.18 260.57 227.97 260.57"/><polygon class="cls-1" points="230.75 260.57 246.86 278.35 246.86 281.43 227.97 260.57 230.75 260.57"/><polygon class="cls-1" points="233.54 260.57 246.86 275.28 246.86 278.35 230.75 260.57 233.54 260.57"/><polygon class="cls-1" points="236.33 260.57 246.86 272.2 246.86 275.28 233.54 260.57 236.33 260.57"/><polygon class="cls-1" points="239.11 260.57 246.86 269.13 246.86 272.2 236.33 260.57 239.11 260.57"/><polygon class="cls-1" points="241.9 260.57 246.86 266.06 246.86 269.13 239.11 260.57 241.9 260.57"/><polygon class="cls-1" points="244.68 260.57 246.86 262.98 246.86 266.06 241.9 260.57 244.68 260.57"/><polygon class="cls-1" points="246.86 262.98 244.68 260.57 246.86 260.57 246.86 262.98"/><polygon class="cls-1" points="153.5 316.75 156.16 319.69 153.5 319.69 153.5 316.75"/><polygon class="cls-1" points="153.5 313.68 158.94 319.69 156.16 319.69 153.5 316.75 153.5 313.68"/><polygon class="cls-1" points="153.5 310.6 161.73 319.69 158.94 319.69 153.5 313.68 153.5 310.6"/><polygon class="cls-1" points="153.5 307.53 164.52 319.69 161.73 319.69 153.5 310.6 153.5 307.53"/><polygon class="cls-1" points="153.5 304.45 167.3 319.69 164.52 319.69 153.5 307.53 153.5 304.45"/><polygon class="cls-1" points="153.5 301.38 170.09 319.69 167.3 319.69 153.5 304.45 153.5 301.38"/><polygon class="cls-1" points="153.5 298.3 172.88 319.69 170.09 319.69 153.5 301.38 153.5 298.3"/><polygon class="cls-1" points="153.5 295.23 175.66 319.69 172.88 319.69 153.5 298.3 153.5 295.23"/><polygon class="cls-1" points="153.5 292.15 177.98 319.18 177.41 319.69 175.66 319.69 153.5 295.23 153.5 292.15"/><polygon class="cls-1" points="153.5 289.08 179.51 317.79 177.98 319.18 153.5 292.15 153.5 289.08"/><polygon class="cls-1" points="153.5 286 181.04 316.4 179.51 317.79 153.5 289.08 153.5 286"/><polygon class="cls-1" points="153.5 282.93 182.57 315.02 181.04 316.4 153.5 286 153.5 282.93"/><polygon class="cls-1" points="153.5 279.85 184.1 313.63 182.57 315.02 153.5 282.93 153.5 279.85"/><polygon class="cls-1" points="153.5 276.78 185.63 312.24 184.1 313.63 153.5 279.85 153.5 276.78"/><polygon class="cls-1" points="153.5 273.7 187.16 310.86 185.63 312.24 153.5 276.78 153.5 273.7"/><polygon class="cls-1" points="153.5 270.63 188.69 309.47 187.16 310.86 153.5 273.7 153.5 270.63"/><polygon class="cls-1" points="153.5 267.56 190.22 308.08 188.69 309.47 153.5 270.63 153.5 267.56"/><polygon class="cls-1" points="153.5 264.48 191.75 306.7 190.22 308.08 153.5 267.56 153.5 264.48"/><polygon class="cls-1" points="153.5 261.41 193.28 305.31 191.75 306.7 153.5 264.48 153.5 261.41"/><polygon class="cls-1" points="153.5 258.33 194.81 303.93 193.28 305.31 153.5 261.41 153.5 258.33"/><polygon class="cls-1" points="153.5 255.26 195.42 301.52 195.42 303.37 194.81 303.93 153.5 258.33 153.5 255.26"/><polygon class="cls-1" points="153.5 252.18 195.42 298.45 195.42 301.52 153.5 255.26 153.5 252.18"/><polygon class="cls-1" points="153.5 249.11 195.42 295.37 195.42 298.45 153.5 252.18 153.5 249.11"/><polygon class="cls-1" points="153.5 246.03 195.42 292.3 195.42 295.37 153.5 249.11 153.5 246.03"/><polygon class="cls-1" points="153.5 242.96 195.42 289.22 195.42 292.3 153.5 246.03 153.5 242.96"/><polygon class="cls-1" points="153.5 239.88 195.42 286.15 195.42 289.22 153.5 242.96 153.5 239.88"/><polygon class="cls-1" points="153.5 236.81 195.42 283.07 195.42 286.15 153.5 239.88 153.5 236.81"/><polygon class="cls-1" points="153.5 233.73 195.42 280 195.42 283.07 153.5 236.81 153.5 233.73"/><polygon class="cls-1" points="153.5 230.66 195.42 276.92 195.42 280 153.5 233.73 153.5 230.66"/><polygon class="cls-1" points="153.5 227.58 195.42 273.85 195.42 276.92 153.5 230.66 153.5 227.58"/><polygon class="cls-1" points="153.5 224.51 195.42 270.77 195.42 273.85 153.5 227.58 153.5 224.51"/><polygon class="cls-1" points="154.53 222.57 195.42 267.7 195.42 270.77 153.5 224.51 153.5 222.57 154.53 222.57"/><polygon class="cls-1" points="157.32 222.57 195.42 264.63 195.42 267.7 154.53 222.57 157.32 222.57"/><polygon class="cls-1" points="160.1 222.57 195.42 261.55 195.42 264.63 157.32 222.57 160.1 222.57"/><polygon class="cls-1" points="162.89 222.57 195.42 258.48 195.42 261.55 160.1 222.57 162.89 222.57"/><polygon class="cls-1" points="165.67 222.57 195.42 255.4 195.42 258.48 162.89 222.57 165.67 222.57"/><polygon class="cls-1" points="168.46 222.57 195.42 252.33 195.42 255.4 165.67 222.57 168.46 222.57"/><polygon class="cls-1" points="171.25 222.57 195.42 249.25 195.42 252.33 168.46 222.57 171.25 222.57"/><polygon class="cls-1" points="174.03 222.57 195.42 246.18 195.42 249.25 171.25 222.57 174.03 222.57"/><polygon class="cls-1" points="176.82 222.57 195.42 243.1 195.42 246.18 174.03 222.57 176.82 222.57"/><polygon class="cls-1" points="179.6 222.57 195.42 240.03 195.42 243.1 176.82 222.57 179.6 222.57"/><polygon class="cls-1" points="182.39 222.57 195.42 236.95 195.42 240.03 179.6 222.57 182.39 222.57"/><polygon class="cls-1" points="185.18 222.57 195.42 233.88 195.42 236.95 182.39 222.57 185.18 222.57"/><polygon class="cls-1" points="187.96 222.57 195.42 230.8 195.42 233.88 185.18 222.57 187.96 222.57"/><polygon class="cls-1" points="190.75 222.57 195.42 227.73 195.42 230.8 187.96 222.57 190.75 222.57"/><polygon class="cls-1" points="193.53 222.57 195.42 224.65 195.42 227.73 190.75 222.57 193.53 222.57"/><polygon class="cls-1" points="195.42 224.65 193.53 222.57 195.42 222.57 195.42 224.65"/><polygon class="cls-1" points="108.05 380.36 139.16 414.7 138.25 415.52 108.05 415.52 108.05 380.36"/><polygon class="cls-1" points="108.05 377.28 140.69 413.31 139.16 414.7 108.05 380.36 108.05 377.28"/><polygon class="cls-1" points="108.05 374.21 142.22 411.92 140.69 413.31 108.05 377.28 108.05 374.21"/><polygon class="cls-1" points="108.05 371.13 143.75 410.54 142.22 411.92 108.05 374.21 108.05 371.13"/><polygon class="cls-1" points="108.05 368.06 145.28 409.15 143.75 410.54 108.05 371.13 108.05 368.06"/><polygon class="cls-1" points="108.05 364.99 146.81 407.76 145.28 409.15 108.05 368.06 108.05 364.99"/><polygon class="cls-1" points="108.05 361.91 148.34 406.38 146.81 407.76 108.05 364.99 108.05 361.91"/><polygon class="cls-1" points="108.05 358.83 149.87 404.99 148.34 406.38 108.05 361.91 108.05 358.83"/><polygon class="cls-1" points="108.05 355.76 151.4 403.61 149.87 404.99 108.05 358.83 108.05 355.76"/><polygon class="cls-1" points="108.05 352.69 152.93 402.22 151.4 403.61 108.05 355.76 108.05 352.69"/><polygon class="cls-1" points="108.05 349.61 154.46 400.83 152.93 402.22 108.05 352.69 108.05 349.61"/><polygon class="cls-1" points="108.05 346.54 155.99 399.45 154.46 400.83 108.05 349.61 108.05 346.54"/><polygon class="cls-1" points="108.05 343.46 157.52 398.06 155.99 399.45 108.05 346.54 108.05 343.46"/><polygon class="cls-1" points="108.05 340.39 158.17 395.7 158.17 397.47 157.52 398.06 108.05 343.46 108.05 340.39"/><polygon class="cls-1" points="108.05 337.31 158.17 392.63 158.17 395.7 108.05 340.39 108.05 337.31"/><polygon class="cls-1" points="108.05 334.24 158.17 389.55 158.17 392.63 108.05 337.31 108.05 334.24"/><polygon class="cls-1" points="108.05 331.16 158.17 386.48 158.17 389.55 108.05 334.24 108.05 331.16"/><polygon class="cls-1" points="108.05 328.09 158.17 383.4 158.17 386.48 108.05 331.16 108.05 328.09"/><polygon class="cls-1" points="108.05 325.01 158.17 380.33 158.17 383.4 108.05 328.09 108.05 325.01"/><polygon class="cls-1" points="108.05 321.94 158.17 377.25 158.17 380.33 108.05 325.01 108.05 321.94"/><polygon class="cls-1" points="108.05 318.86 158.17 374.18 158.17 377.25 108.05 321.94 108.05 318.86"/><polygon class="cls-1" points="108.05 315.79 158.17 371.1 158.17 374.18 108.05 318.86 108.05 315.79"/><polygon class="cls-1" points="108.05 312.71 158.17 368.03 158.17 371.1 108.05 315.79 108.05 312.71"/><polygon class="cls-1" points="108.05 309.64 158.17 364.95 158.17 368.03 108.05 312.71 108.05 309.64"/><polygon class="cls-1" points="108.05 306.56 158.17 361.88 158.17 364.95 108.05 309.64 108.05 306.56"/><polygon class="cls-1" points="108.05 303.49 158.17 358.8 158.17 361.88 108.05 306.56 108.05 303.49"/><polygon class="cls-1" points="108.05 300.42 158.17 355.73 158.17 358.8 108.05 303.49 108.05 300.42"/><polygon class="cls-1" points="108.05 297.34 158.17 352.65 158.17 355.73 108.05 300.42 108.05 297.34"/><polygon class="cls-1" points="108.05 295.09 108.46 294.72 158.17 349.58 158.17 352.65 108.05 297.34 108.05 295.09"/><polygon class="cls-1" points="108.46 294.72 109.99 293.33 158.17 346.5 158.17 349.58 108.46 294.72"/><polygon class="cls-1" points="109.99 293.33 111.52 291.95 158.17 343.43 158.17 346.5 109.99 293.33"/><polygon class="cls-1" points="111.52 291.95 113.05 290.56 158.17 340.36 158.17 343.43 111.52 291.95"/><polygon class="cls-1" points="113.05 290.56 114.58 289.18 158.17 337.28 158.17 340.36 113.05 290.56"/><polygon class="cls-1" points="114.58 289.18 116.11 287.79 158.17 334.21 158.17 337.28 114.58 289.18"/><polygon class="cls-1" points="116.11 287.79 117.64 286.4 158.17 331.13 158.17 334.21 116.11 287.79"/><polygon class="cls-1" points="117.64 286.4 119.17 285.02 158.17 328.06 158.17 331.13 117.64 286.4"/><polygon class="cls-1" points="119.17 285.02 120.7 283.63 158.17 324.98 158.17 328.06 119.17 285.02"/><polygon class="cls-1" points="120.7 283.63 122.23 282.24 158.17 321.91 158.17 324.98 120.7 283.63"/><polygon class="cls-1" points="122.23 282.24 123.76 280.86 158.17 318.83 158.17 321.91 122.23 282.24"/><polygon class="cls-1" points="123.76 280.86 125.29 279.47 158.17 315.76 158.17 318.83 123.76 280.86"/><polygon class="cls-1" points="125.29 279.47 126.82 278.08 158.17 312.68 158.17 315.76 125.29 279.47"/><polygon class="cls-1" points="126.82 278.08 128.35 276.7 158.17 309.61 158.17 312.68 126.82 278.08"/><polygon class="cls-1" points="128.35 276.7 129.88 275.31 158.17 306.53 158.17 309.61 128.35 276.7"/><polygon class="cls-1" points="129.88 275.31 131.41 273.93 158.17 303.46 158.17 306.53 129.88 275.31"/><polygon class="cls-1" points="131.41 273.93 132.18 273.23 133.56 273.23 158.17 300.38 158.17 303.46 131.41 273.93"/><polygon class="cls-1" points="136.35 273.23 158.17 297.31 158.17 300.38 133.56 273.23 136.35 273.23"/><polygon class="cls-1" points="139.13 273.23 158.17 294.24 158.17 297.31 136.35 273.23 139.13 273.23"/><polygon class="cls-1" points="141.92 273.23 158.17 291.16 158.17 294.24 139.13 273.23 141.92 273.23"/><polygon class="cls-1" points="144.71 273.23 158.17 288.08 158.17 291.16 141.92 273.23 144.71 273.23"/><polygon class="cls-1" points="147.49 273.23 158.17 285.01 158.17 288.08 144.71 273.23 147.49 273.23"/><polygon class="cls-1" points="150.28 273.23 158.17 281.94 158.17 285.01 147.49 273.23 150.28 273.23"/><polygon class="cls-1" points="153.06 273.23 158.17 278.86 158.17 281.94 150.28 273.23 153.06 273.23"/><polygon class="cls-1" points="155.85 273.23 158.17 275.79 158.17 278.86 153.06 273.23 155.85 273.23"/><polygon class="cls-1" points="158.17 275.79 155.85 273.23 158.17 273.23 158.17 275.79"/><polygon class="cls-1" points="97.07 352.87 98.32 354.25 97.07 354.25 97.07 352.87"/><polygon class="cls-1" points="97.07 349.8 100.63 353.72 100.05 354.25 98.32 354.25 97.07 352.87 97.07 349.8"/><polygon class="cls-1" points="97.07 346.72 102.16 352.34 100.63 353.72 97.07 349.8 97.07 346.72"/><polygon class="cls-1" points="97.07 343.65 103.69 350.95 102.16 352.34 97.07 346.72 97.07 343.65"/><polygon class="cls-1" points="97.07 340.57 105.22 349.56 103.69 350.95 97.07 343.65 97.07 340.57"/><polygon class="cls-1" points="97.07 337.5 106.75 348.18 105.22 349.56 97.07 340.57 97.07 337.5"/><polygon class="cls-1" points="97.07 334.42 108.28 346.79 106.75 348.18 97.07 337.5 97.07 334.42"/><polygon class="cls-1" points="97.07 331.35 109.81 345.41 108.28 346.79 97.07 334.42 97.07 331.35"/><polygon class="cls-1" points="97.07 328.27 111.34 344.02 109.81 345.41 97.07 331.35 97.07 328.27"/><polygon class="cls-1" points="97.07 325.2 112.87 342.63 111.34 344.02 97.07 328.27 97.07 325.2"/><polygon class="cls-1" points="97.07 322.12 114.4 341.25 112.87 342.63 97.07 325.2 97.07 322.12"/><polygon class="cls-1" points="97.07 319.05 115.93 339.86 114.4 341.25 97.07 322.12 97.07 319.05"/><polygon class="cls-1" points="97.07 315.97 117.46 338.48 115.93 339.86 97.07 319.05 97.07 315.97"/><polygon class="cls-1" points="97.07 312.9 118.99 337.09 117.46 338.48 97.07 315.97 97.07 312.9"/><polygon class="cls-1" points="97.07 309.82 120.52 335.7 118.99 337.09 97.07 312.9 97.07 309.82"/><polygon class="cls-1" points="97.07 306.75 122.05 334.32 120.52 335.7 97.07 309.82 97.07 306.75"/><polygon class="cls-1" points="97.07 303.68 122.06 331.26 122.06 334.3 122.05 334.32 97.07 306.75 97.07 303.68"/><polygon class="cls-1" points="97.07 300.6 122.06 328.19 122.06 331.26 97.07 303.68 97.07 300.6"/><polygon class="cls-1" points="97.07 297.53 122.06 325.11 122.06 328.19 97.07 300.6 97.07 297.53"/><polygon class="cls-1" points="97.07 294.45 122.06 322.04 122.06 325.11 97.07 297.53 97.07 294.45"/><polygon class="cls-1" points="97.07 291.38 122.06 318.96 122.06 322.04 97.07 294.45 97.07 291.38"/><polygon class="cls-1" points="97.07 288.3 122.06 315.89 122.06 318.96 97.07 291.38 97.07 288.3"/><polygon class="cls-1" points="97.07 285.23 122.06 312.81 122.06 315.89 97.07 288.3 97.07 285.23"/><polygon class="cls-1" points="97.07 282.15 122.06 309.74 122.06 312.81 97.07 285.23 97.07 282.15"/><polygon class="cls-1" points="97.07 279.08 122.06 306.66 122.06 309.74 97.07 282.15 97.07 279.08"/><polygon class="cls-1" points="97.07 276 122.06 303.59 122.06 306.66 97.07 279.08 97.07 276"/><polygon class="cls-1" points="97.07 272.93 122.06 300.51 122.06 303.59 97.07 276 97.07 272.93"/><polygon class="cls-1" points="97.07 269.85 122.06 297.44 122.06 300.51 97.07 272.93 97.07 269.85"/><polygon class="cls-1" points="97.07 266.78 122.06 294.36 122.06 297.44 97.07 269.85 97.07 266.78"/><polygon class="cls-1" points="97.07 263.7 122.06 291.29 122.06 294.36 97.07 266.78 97.07 263.7"/><polygon class="cls-1" points="97.07 260.63 122.06 288.21 122.06 291.29 97.07 263.7 97.07 260.63"/><polygon class="cls-1" points="97.07 257.55 122.06 285.14 122.06 288.21 97.07 260.63 97.07 257.55"/><polygon class="cls-1" points="97.07 254.48 122.06 282.06 122.06 285.14 97.07 257.55 97.07 254.48"/><polygon class="cls-1" points="97.07 251.41 122.06 278.99 122.06 282.06 97.07 254.48 97.07 251.41"/><polygon class="cls-1" points="97.07 248.33 122.06 275.91 122.06 278.99 97.07 251.41 97.07 248.33"/><polygon class="cls-1" points="97.07 245.25 122.06 272.84 122.06 275.91 97.07 248.33 97.07 245.25"/><polygon class="cls-1" points="97.07 242.18 122.06 269.76 122.06 272.84 97.07 245.25 97.07 242.18"/><polygon class="cls-1" points="97.07 239.11 122.06 266.69 122.06 269.76 97.07 242.18 97.07 239.11"/><polygon class="cls-1" points="97.07 236.03 122.06 263.62 122.06 266.69 97.07 239.11 97.07 236.03"/><polygon class="cls-1" points="97.07 232.96 122.06 260.54 122.06 263.62 97.07 236.03 97.07 232.96"/><polygon class="cls-1" points="97.07 229.88 122.06 257.47 122.06 260.54 97.07 232.96 97.07 229.88"/><polygon class="cls-1" points="97.07 226.81 122.06 254.39 122.06 257.47 97.07 229.88 97.07 226.81"/><polygon class="cls-1" points="97.07 223.73 122.06 251.32 122.06 254.39 97.07 226.81 97.07 223.73"/><polygon class="cls-1" points="98.81 222.57 122.06 248.24 122.06 251.32 97.07 223.73 97.07 222.57 98.81 222.57"/><polygon class="cls-1" points="101.59 222.57 122.06 245.17 122.06 248.24 98.81 222.57 101.59 222.57"/><polygon class="cls-1" points="104.38 222.57 122.06 242.09 122.06 245.17 101.59 222.57 104.38 222.57"/><polygon class="cls-1" points="107.17 222.57 122.06 239.02 122.06 242.09 104.38 222.57 107.17 222.57"/><polygon class="cls-1" points="109.95 222.57 122.06 235.94 122.06 239.02 107.17 222.57 109.95 222.57"/><polygon class="cls-1" points="112.74 222.57 122.06 232.87 122.06 235.94 109.95 222.57 112.74 222.57"/><polygon class="cls-1" points="115.53 222.57 122.06 229.79 122.06 232.87 112.74 222.57 115.53 222.57"/><polygon class="cls-1" points="118.31 222.57 122.06 226.72 122.06 229.79 115.53 222.57 118.31 222.57"/><polygon class="cls-1" points="121.1 222.57 122.06 223.64 122.06 226.72 118.31 222.57 121.1 222.57"/><polygon class="cls-1" points="122.06 223.64 121.1 222.57 122.06 222.57 122.06 223.64"/><polygon class="cls-1" points="97.07 199.13 97.5 199.61 97.07 199.61 97.07 199.13"/><polygon class="cls-1" points="97.07 196.06 100.28 199.61 97.5 199.61 97.07 199.13 97.07 196.06"/><polygon class="cls-1" points="97.07 192.99 103.07 199.61 100.28 199.61 97.07 196.06 97.07 192.99"/><polygon class="cls-1" points="97.07 189.91 105.86 199.61 103.07 199.61 97.07 192.99 97.07 189.91"/><polygon class="cls-1" points="97.07 186.84 108.64 199.61 105.86 199.61 97.07 189.91 97.07 186.84"/><polygon class="cls-1" points="97.07 183.76 111.43 199.61 108.64 199.61 97.07 186.84 97.07 183.76"/><polygon class="cls-1" points="97.07 180.69 114.22 199.61 111.43 199.61 97.07 183.76 97.07 180.69"/><polygon class="cls-1" points="97.07 177.61 117 199.61 114.22 199.61 97.07 180.69 97.07 177.61"/><polygon class="cls-1" points="97.07 174.54 118.54 198.23 118.54 199.61 117 199.61 97.07 177.61 97.07 174.54"/><polygon class="cls-1" points="97.07 171.46 118.54 195.15 118.54 198.23 97.07 174.54 97.07 171.46"/><polygon class="cls-1" points="97.07 168.39 118.54 192.08 118.54 195.15 97.07 171.46 97.07 168.39"/><polygon class="cls-1" points="97.07 165.31 118.54 189 118.54 192.08 97.07 168.39 97.07 165.31"/><polygon class="cls-1" points="97.07 162.24 118.54 185.93 118.54 189 97.07 165.31 97.07 162.24"/><polygon class="cls-1" points="97.07 159.16 118.54 182.85 118.54 185.93 97.07 162.24 97.07 159.16"/><polygon class="cls-1" points="97.07 156.09 118.54 179.78 118.54 182.85 97.07 159.16 97.07 156.09"/><polygon class="cls-1" points="97.07 153.01 118.54 176.71 118.54 179.78 97.07 156.09 97.07 153.01"/><polygon class="cls-1" points="97.07 149.94 118.54 173.63 118.54 176.71 97.07 153.01 97.07 149.94"/><polygon class="cls-1" points="97.07 146.86 118.54 170.56 118.54 173.63 97.07 149.94 97.07 146.86"/><polygon class="cls-1" points="97.07 143.79 118.54 167.48 118.54 170.56 97.07 146.86 97.07 143.79"/><polygon class="cls-1" points="97.07 140.71 118.54 164.41 118.54 167.48 97.07 143.79 97.07 140.71"/><polygon class="cls-1" points="97.07 137.64 118.54 161.33 118.54 164.41 97.07 140.71 97.07 137.64"/><polygon class="cls-1" points="97.07 134.56 118.54 158.26 118.54 161.33 97.07 137.64 97.07 134.56"/><polygon class="cls-1" points="97.07 131.49 118.54 155.18 118.54 158.26 97.07 134.56 97.07 131.49"/><polygon class="cls-1" points="97.07 128.41 118.54 152.11 118.54 155.18 97.07 131.49 97.07 128.41"/><polygon class="cls-1" points="97.07 125.34 118.54 149.03 118.54 152.11 97.07 128.41 97.07 125.34"/><polygon class="cls-1" points="97.07 122.27 118.54 145.96 118.54 149.03 97.07 125.34 97.07 122.27"/><polygon class="cls-1" points="97.07 119.19 118.54 142.88 118.54 145.96 97.07 122.27 97.07 119.19"/><polygon class="cls-1" points="97.07 116.12 118.54 139.81 118.54 142.88 97.07 119.19 97.07 116.12"/><polygon class="cls-1" points="97.07 113.04 118.54 136.73 118.54 139.81 97.07 116.12 97.07 113.04"/><polygon class="cls-1" points="97.07 109.97 118.54 133.66 118.54 136.73 97.07 113.04 97.07 109.97"/><polygon class="cls-1" points="97.07 106.89 118.54 130.58 118.54 133.66 97.07 109.97 97.07 106.89"/><polygon class="cls-1" points="97.59 104.39 118.54 127.51 118.54 130.58 97.07 106.89 97.07 104.39 97.59 104.39"/><polygon class="cls-1" points="100.37 104.39 118.54 124.44 118.54 127.51 97.59 104.39 100.37 104.39"/><polygon class="cls-1" points="103.16 104.39 118.54 121.36 118.54 124.44 100.37 104.39 103.16 104.39"/><polygon class="cls-1" points="105.95 104.39 118.54 118.28 118.54 121.36 103.16 104.39 105.95 104.39"/><polygon class="cls-1" points="108.73 104.39 118.54 115.21 118.54 118.28 105.95 104.39 108.73 104.39"/><polygon class="cls-1" points="111.52 104.39 118.54 112.14 118.54 115.21 108.73 104.39 111.52 104.39"/><polygon class="cls-1" points="114.31 104.39 118.54 109.06 118.54 112.14 111.52 104.39 114.31 104.39"/><polygon class="cls-1" points="117.09 104.39 118.54 105.99 118.54 109.06 114.31 104.39 117.09 104.39"/><polygon class="cls-1" points="118.54 105.99 117.09 104.39 118.54 104.39 118.54 105.99"/><polygon class="cls-1" points="149.13 198.17 150.44 199.61 149.13 199.61 149.13 198.17"/><polygon class="cls-1" points="149.13 195.09 153.22 199.61 150.44 199.61 149.13 198.17 149.13 195.09"/><polygon class="cls-1" points="149.13 192.02 156.01 199.61 153.22 199.61 149.13 195.09 149.13 192.02"/><polygon class="cls-1" points="149.13 188.94 158.79 199.61 156.01 199.61 149.13 192.02 149.13 188.94"/><polygon class="cls-1" points="149.13 185.87 161.58 199.61 158.79 199.61 149.13 188.94 149.13 185.87"/><polygon class="cls-1" points="149.13 182.8 164.37 199.61 161.58 199.61 149.13 185.87 149.13 182.8"/><polygon class="cls-1" points="149.13 179.72 167.15 199.61 164.37 199.61 149.13 182.8 149.13 179.72"/><polygon class="cls-1" points="149.13 176.65 169.94 199.61 167.15 199.61 149.13 179.72 149.13 176.65"/><polygon class="cls-1" points="149.13 173.57 172.72 199.61 169.94 199.61 149.13 176.65 149.13 173.57"/><polygon class="cls-1" points="149.13 170.5 175.51 199.61 172.72 199.61 149.13 173.57 149.13 170.5"/><polygon class="cls-1" points="149.13 167.42 178.3 199.61 175.51 199.61 149.13 170.5 149.13 167.42"/><polygon class="cls-1" points="149.13 164.35 181.08 199.61 178.3 199.61 149.13 167.42 149.13 164.35"/><polygon class="cls-1" points="149.13 161.27 183.87 199.61 181.08 199.61 149.13 164.35 149.13 161.27"/><polygon class="cls-1" points="149.13 158.2 186.66 199.61 183.87 199.61 149.13 161.27 149.13 158.2"/><polygon class="cls-1" points="149.13 155.12 189.44 199.61 186.66 199.61 149.13 158.2 149.13 155.12"/><polygon class="cls-1" points="149.13 152.05 192.23 199.61 189.44 199.61 149.13 155.12 149.13 152.05"/><polygon class="cls-1" points="149.13 148.97 195.01 199.61 192.23 199.61 149.13 152.05 149.13 148.97"/><polygon class="cls-1" points="149.13 145.9 197.8 199.61 195.01 199.61 149.13 148.97 149.13 145.9"/><polygon class="cls-1" points="149.13 142.82 200.59 199.61 197.8 199.61 149.13 145.9 149.13 142.82"/><polygon class="cls-1" points="149.13 139.75 202.65 198.81 202.65 199.61 200.59 199.61 149.13 142.82 149.13 139.75"/><polygon class="cls-1" points="149.13 136.68 202.65 195.74 202.65 198.81 149.13 139.75 149.13 136.68"/><polygon class="cls-1" points="149.13 133.6 202.65 192.66 202.65 195.74 149.13 136.68 149.13 133.6"/><polygon class="cls-1" points="149.13 130.53 202.65 189.59 202.65 192.66 149.13 133.6 149.13 130.53"/><polygon class="cls-1" points="149.13 127.45 202.65 186.51 202.65 189.59 149.13 130.53 149.13 127.45"/><polygon class="cls-1" points="149.13 124.38 202.65 183.44 202.65 186.51 149.13 127.45 149.13 124.38"/><polygon class="cls-1" points="149.13 121.3 202.65 180.36 202.65 183.44 149.13 124.38 149.13 121.3"/><polygon class="cls-1" points="149.13 118.23 202.65 177.29 202.65 180.36 149.13 121.3 149.13 118.23"/><polygon class="cls-1" points="149.13 115.15 202.65 174.21 202.65 177.29 149.13 118.23 149.13 115.15"/><polygon class="cls-1" points="149.13 112.08 202.65 171.14 202.65 174.21 149.13 115.15 149.13 112.08"/><polygon class="cls-1" points="149.13 109 202.65 168.06 202.65 171.14 149.13 112.08 149.13 109"/><polygon class="cls-1" points="149.13 105.93 202.65 164.99 202.65 168.06 149.13 109 149.13 105.93"/><polygon class="cls-1" points="149.13 102.85 202.65 161.91 202.65 164.99 149.13 105.93 149.13 102.85"/><polygon class="cls-1" points="149.13 99.78 202.65 158.84 202.65 161.91 149.13 102.85 149.13 99.78"/><polygon class="cls-1" points="149.13 96.7 202.65 155.76 202.65 158.84 149.13 99.78 149.13 96.7"/><polygon class="cls-1" points="149.13 93.63 202.65 152.69 202.65 155.76 149.13 96.7 149.13 93.63"/><polygon class="cls-1" points="149.13 90.55 202.65 149.62 202.65 152.69 149.13 93.63 149.13 90.55"/><polygon class="cls-1" points="149.13 87.48 202.65 146.54 202.65 149.62 149.13 90.55 149.13 87.48"/><polygon class="cls-1" points="149.13 84.4 202.65 143.47 202.65 146.54 149.13 87.48 149.13 84.4"/><polygon class="cls-1" points="149.13 81.33 202.65 140.39 202.65 143.47 149.13 84.4 149.13 81.33"/><polygon class="cls-1" points="149.13 78.25 202.65 137.32 202.65 140.39 149.13 81.33 149.13 78.25"/><polygon class="cls-1" points="149.13 77.46 150.27 76.43 202.65 134.24 202.65 137.32 149.13 78.25 149.13 77.46"/><polygon class="cls-1" points="150.27 76.43 151.8 75.05 202.65 131.17 202.65 134.24 150.27 76.43"/><polygon class="cls-1" points="151.8 75.05 153.33 73.66 202.65 128.09 202.65 131.17 151.8 75.05"/><polygon class="cls-1" points="153.33 73.66 154.86 72.28 202.65 125.02 202.65 128.09 153.33 73.66"/><polygon class="cls-1" points="154.86 72.28 156.39 70.89 202.65 121.94 202.65 125.02 154.86 72.28"/><polygon class="cls-1" points="156.39 70.89 157.92 69.5 202.65 118.87 202.65 121.94 156.39 70.89"/><polygon class="cls-1" points="157.92 69.5 159.45 68.12 202.65 115.79 202.65 118.87 157.92 69.5"/><polygon class="cls-1" points="159.45 68.12 160.98 66.73 202.65 112.72 202.65 115.79 159.45 68.12"/><polygon class="cls-1" points="160.98 66.73 162.51 65.34 202.65 109.64 202.65 112.72 160.98 66.73"/><polygon class="cls-1" points="162.51 65.34 164.04 63.96 202.65 106.57 202.65 109.64 162.51 65.34"/><polygon class="cls-1" points="164.04 63.96 165.57 62.57 202.65 103.49 202.65 106.57 164.04 63.96"/><polygon class="cls-1" points="165.57 62.57 167.1 61.18 202.65 100.42 202.65 103.49 165.57 62.57"/><polygon class="cls-1" points="167.1 61.18 168.63 59.8 202.65 97.34 202.65 100.42 167.1 61.18"/><polygon class="cls-1" points="168.63 59.8 170.16 58.41 202.65 94.27 202.65 97.34 168.63 59.8"/><polygon class="cls-1" points="170.16 58.41 171.69 57.02 202.65 91.19 202.65 94.27 170.16 58.41"/><polygon class="cls-1" points="171.69 57.02 173.22 55.64 202.65 88.12 202.65 91.19 171.69 57.02"/><polygon class="cls-1" points="173.22 55.64 173.66 55.24 175.64 55.24 202.65 85.05 202.65 88.12 173.22 55.64"/><polygon class="cls-1" points="178.42 55.24 202.65 81.97 202.65 85.05 175.64 55.24 178.42 55.24"/><polygon class="cls-1" points="181.21 55.24 202.65 78.9 202.65 81.97 178.42 55.24 181.21 55.24"/><polygon class="cls-1" points="184 55.24 202.65 75.82 202.65 78.9 181.21 55.24 184 55.24"/><polygon class="cls-1" points="186.78 55.24 202.65 72.75 202.65 75.82 184 55.24 186.78 55.24"/><polygon class="cls-1" points="189.57 55.24 202.65 69.67 202.65 72.75 186.78 55.24 189.57 55.24"/><polygon class="cls-1" points="192.35 55.24 202.65 66.6 202.65 69.67 189.57 55.24 192.35 55.24"/><polygon class="cls-1" points="195.14 55.24 202.65 63.52 202.65 66.6 192.35 55.24 195.14 55.24"/><polygon class="cls-1" points="197.93 55.24 202.65 60.45 202.65 63.52 195.14 55.24 197.93 55.24"/><polygon class="cls-1" points="200.71 55.24 202.65 57.37 202.65 60.45 197.93 55.24 200.71 55.24"/><polygon class="cls-1" points="202.65 57.37 200.71 55.24 202.65 55.24 202.65 57.37"/><polygon class="cls-1" points="0 261.12 164.8 442.99 0 442.99 0 261.12"/><polygon class="cls-1" points="0 258.04 167.59 442.99 164.8 442.99 0 261.12 0 258.04"/><polygon class="cls-1" points="0 254.97 170.37 442.99 167.59 442.99 0 258.04 0 254.97"/><polygon class="cls-1" points="0 251.89 173.16 442.99 170.37 442.99 0 254.97 0 251.89"/><polygon class="cls-1" points="0 248.82 175.94 442.99 173.16 442.99 0 251.89 0 248.82"/><polygon class="cls-1" points="0 245.74 178.73 442.99 175.94 442.99 0 248.82 0 245.74"/><polygon class="cls-1" points="0 242.67 181.52 442.99 178.73 442.99 0 245.74 0 242.67"/><polygon class="cls-1" points="0 239.59 184.3 442.99 181.52 442.99 0 242.67 0 239.59"/><polygon class="cls-1" points="0 236.52 187.09 442.99 184.3 442.99 0 239.59 0 236.52"/><polygon class="cls-1" points="0 233.44 189.87 442.99 187.09 442.99 0 236.52 0 233.44"/><polygon class="cls-1" points="0 230.37 192.66 442.99 189.87 442.99 0 233.44 0 230.37"/><polygon class="cls-1" points="0 227.3 195.45 442.99 192.66 442.99 0 230.37 0 227.3"/><polygon class="cls-1" points="0 224.22 198.23 442.99 195.45 442.99 0 227.3 0 224.22"/><polygon class="cls-1" points="0 221.15 201.02 442.99 198.23 442.99 0 224.22 0 221.15"/><polygon class="cls-1" points="0 218.07 203.8 442.99 201.02 442.99 0 221.15 0 218.07"/><polygon class="cls-1" points="0 215 206.59 442.99 203.8 442.99 0 218.07 0 215"/><polygon class="cls-1" points="0 211.92 209.38 442.99 206.59 442.99 0 215 0 211.92"/><polygon class="cls-1" points="0 208.85 212.16 442.99 209.38 442.99 0 211.92 0 208.85"/><polygon class="cls-1" points="0 205.77 214.95 442.99 212.16 442.99 0 208.85 0 205.77"/><polygon class="cls-1" points="0 202.7 217.74 442.99 214.95 442.99 0 205.77 0 202.7"/><polygon class="cls-1" points="0 199.62 220.52 442.99 217.74 442.99 0 202.7 0 199.62"/><polygon class="cls-1" points="0 196.55 223.31 442.99 220.52 442.99 0 199.62 0 196.55"/><polygon class="cls-1" points="0 193.47 226.09 442.99 223.31 442.99 0 196.55 0 193.47"/><polygon class="cls-1" points="0 190.4 228.88 442.99 226.09 442.99 0 193.47 0 190.4"/><polygon class="cls-1" points="0 187.32 231.66 442.99 228.88 442.99 0 190.4 0 187.32"/><polygon class="cls-1" points="0 184.25 234.45 442.99 231.66 442.99 0 187.32 0 184.25"/><polygon class="cls-1" points="0 181.18 237.24 442.99 234.45 442.99 0 184.25 0 181.18"/><polygon class="cls-1" points="0 178.1 240.02 442.99 237.24 442.99 0 181.18 0 178.1"/><polygon class="cls-1" points="0 175.03 242.81 442.99 240.02 442.99 0 178.1 0 175.03"/><polygon class="cls-1" points="0 171.95 245.6 442.99 242.81 442.99 0 175.03 0 171.95"/><polygon class="cls-1" points="0 168.88 248.38 442.99 245.6 442.99 0 171.95 0 168.88"/><polygon class="cls-1" points="0 165.8 251.17 442.99 248.38 442.99 0 168.88 0 165.8"/><polygon class="cls-1" points="0 162.73 253.95 442.99 251.17 442.99 0 165.8 0 162.73"/><polygon class="cls-1" points="0 159.65 256.74 442.99 253.95 442.99 0 162.73 0 159.65"/><polygon class="cls-1" points="0 156.58 259.53 442.99 256.74 442.99 0 159.65 0 156.58"/><polygon class="cls-1" points="0 153.5 262.31 442.99 259.53 442.99 0 156.58 0 153.5"/><polygon class="cls-1" points="0 150.43 265.1 442.99 262.31 442.99 0 153.5 0 150.43"/><polygon class="cls-1" points="0 147.35 267.88 442.99 265.1 442.99 0 150.43 0 147.35"/><polygon class="cls-1" points="0 144.28 270.67 442.99 267.88 442.99 0 147.35 0 144.28"/><polygon class="cls-1" points="0 141.2 273.46 442.99 270.67 442.99 0 144.28 0 141.2"/><polygon class="cls-1" points="0 138.13 276.24 442.99 273.46 442.99 0 141.2 0 138.13"/><polygon class="cls-1" points="0 135.05 279.03 442.99 276.24 442.99 0 138.13 0 135.05"/><polygon class="cls-1" points="0 131.98 281.11 442.22 280.26 442.99 279.03 442.99 0 135.05 0 131.98"/><polygon class="cls-1" points="0 128.9 282.64 440.83 281.11 442.22 0 131.98 0 128.9"/><polygon class="cls-1" points="0 125.83 284.17 439.44 282.64 440.83 0 128.9 0 125.83"/><polygon class="cls-1" points="0 122.75 285.7 438.06 284.17 439.44 0 125.83 0 122.75"/><polygon class="cls-1" points="0 119.68 287.23 436.67 285.7 438.06 0 122.75 0 119.68"/><polygon class="cls-1" points="0 116.61 288.76 435.28 287.23 436.67 0 119.68 0 116.61"/><polygon class="cls-1" points="0 113.53 290.29 433.9 288.76 435.28 0 116.61 0 113.53"/><polygon class="cls-1" points="0 110.46 291.82 432.51 290.29 433.9 0 113.53 0 110.46"/><polygon class="cls-1" points="0 107.38 293.35 431.13 291.82 432.51 0 110.46 0 107.38"/><polygon class="cls-1" points="0 104.31 294.88 429.74 293.35 431.13 0 107.38 0 104.31"/><polygon class="cls-1" points="0 101.23 296.41 428.35 294.88 429.74 0 104.31 0 101.23"/><polygon class="cls-1" points="0 98.16 297.94 426.97 296.41 428.35 0 101.23 0 98.16"/><polygon class="cls-1" points="0 95.08 299.47 425.58 297.94 426.97 0 98.16 0 95.08"/><polygon class="cls-1" points="0 92.01 301 424.19 299.47 425.58 0 95.08 0 92.01"/><polygon class="cls-1" points="0 88.93 302.53 422.81 301 424.19 0 92.01 0 88.93"/><polygon class="cls-1" points="0 85.86 304.06 421.42 302.53 422.81 0 88.93 0 85.86"/><polygon class="cls-1" points="0 82.78 305.59 420.04 304.06 421.42 0 85.86 0 82.78"/><polygon class="cls-1" points="0 79.71 307.12 418.65 305.59 420.04 0 82.78 0 79.71"/><polygon class="cls-1" points="0 76.63 308.65 417.26 307.12 418.65 0 79.71 0 76.63"/><polygon class="cls-1" points="0 73.56 310.18 415.88 308.65 417.26 0 76.63 0 73.56"/><polygon class="cls-1" points="0 70.48 311.71 414.49 310.18 415.88 0 73.56 0 70.48"/><polygon class="cls-1" points="0 67.41 313.24 413.1 311.71 414.49 0 70.48 0 67.41"/><polygon class="cls-1" points="0 64.33 314.77 411.72 313.24 413.1 0 67.41 0 64.33"/><polygon class="cls-1" points="0 61.26 316.3 410.33 314.77 411.72 0 64.33 0 61.26"/><polygon class="cls-1" points="0 58.19 317.83 408.94 316.3 410.33 0 61.26 0 58.19"/><polygon class="cls-1" points="0 55.11 319.36 407.56 317.83 408.94 0 58.19 0 55.11"/><polygon class="cls-1" points="0 52.04 320.89 406.17 319.36 407.56 0 55.11 0 52.04"/><polygon class="cls-1" points="0 48.96 322.42 404.79 320.89 406.17 0 52.04 0 48.96"/><polygon class="cls-1" points="0 45.89 323.95 403.4 322.42 404.79 0 48.96 0 45.89"/><polygon class="cls-1" points="0 42.81 325.48 402.01 323.95 403.4 0 45.89 0 42.81"/><polygon class="cls-1" points="0 39.74 327.01 400.63 325.48 402.01 0 42.81 0 39.74"/><polygon class="cls-1" points="0 36.66 328.54 399.24 327.01 400.63 0 39.74 0 36.66"/><polygon class="cls-1" points="0 33.59 330.07 397.85 328.54 399.24 0 36.66 0 33.59"/><polygon class="cls-1" points="0 30.51 331.6 396.47 330.07 397.85 0 33.59 0 30.51"/><polygon class="cls-1" points="0 27.44 333.13 395.08 331.6 396.47 0 30.51 0 27.44"/><polygon class="cls-1" points="0 24.36 334.66 393.69 333.13 395.08 0 27.44 0 24.36"/><polygon class="cls-1" points="0 21.29 336.19 392.31 334.66 393.69 0 24.36 0 21.29"/><polygon class="cls-1" points="0 18.21 337.72 390.92 336.19 392.31 0 21.29 0 18.21"/><polygon class="cls-1" points="0 15.14 339.25 389.54 337.72 390.92 0 18.21 0 15.14"/><polygon class="cls-1" points="0 12.06 340.78 388.15 339.25 389.54 0 15.14 0 12.06"/><polygon class="cls-1" points="0 8.99 342.31 386.76 340.78 388.15 0 12.06 0 8.99"/><polygon class="cls-1" points="0 5.92 343.84 385.38 342.31 386.76 0 8.99 0 5.92"/><polygon class="cls-1" points="0 2.84 345.37 383.99 343.84 385.38 0 5.92 0 2.84"/><polygon class="cls-1" points="0.21 0 346.9 382.6 345.37 383.99 0 2.84 0 0 0.21 0"/><polygon class="cls-1" points="3 0 348.43 381.22 346.9 382.6 0.21 0 3 0"/><polygon class="cls-1" points="5.79 0 348.92 378.68 348.92 380.78 348.43 381.22 3 0 5.79 0"/><polygon class="cls-1" points="8.57 0 348.92 375.6 348.92 378.68 5.79 0 8.57 0"/><polygon class="cls-1" points="11.36 0 348.92 372.53 348.92 375.6 8.57 0 11.36 0"/><polygon class="cls-1" points="14.14 0 348.92 369.45 348.92 372.53 11.36 0 14.14 0"/><polygon class="cls-1" points="16.93 0 348.92 366.38 348.92 369.45 14.14 0 16.93 0"/><polygon class="cls-1" points="19.71 0 348.92 363.31 348.92 366.38 16.93 0 19.71 0"/><polygon class="cls-1" points="22.5 0 348.92 360.23 348.92 363.31 19.71 0 22.5 0"/><polygon class="cls-1" points="25.29 0 348.92 357.15 348.92 360.23 22.5 0 25.29 0"/><polygon class="cls-1" points="28.07 0 348.92 354.08 348.92 357.15 25.29 0 28.07 0"/><polygon class="cls-1" points="30.86 0 348.92 351.01 348.92 354.08 28.07 0 30.86 0"/><polygon class="cls-1" points="33.65 0 348.92 347.93 348.92 351.01 30.86 0 33.65 0"/><polygon class="cls-1" points="36.43 0 348.92 344.86 348.92 347.93 33.65 0 36.43 0"/><polygon class="cls-1" points="39.22 0 348.92 341.78 348.92 344.86 36.43 0 39.22 0"/><polygon class="cls-1" points="42 0 348.92 338.71 348.92 341.78 39.22 0 42 0"/><polygon class="cls-1" points="44.79 0 348.92 335.63 348.92 338.71 42 0 44.79 0"/><polygon class="cls-1" points="47.58 0 348.92 332.56 348.92 335.63 44.79 0 47.58 0"/><polygon class="cls-1" points="50.36 0 348.92 329.48 348.92 332.56 47.58 0 50.36 0"/><polygon class="cls-1" points="53.15 0 348.92 326.41 348.92 329.48 50.36 0 53.15 0"/><polygon class="cls-1" points="55.94 0 348.92 323.33 348.92 326.41 53.15 0 55.94 0"/><polygon class="cls-1" points="58.72 0 348.92 320.26 348.92 323.33 55.94 0 58.72 0"/><polygon class="cls-1" points="61.51 0 348.92 317.18 348.92 320.26 58.72 0 61.51 0"/><polygon class="cls-1" points="64.29 0 348.92 314.11 348.92 317.18 61.51 0 64.29 0"/><polygon class="cls-1" points="67.08 0 348.92 311.03 348.92 314.11 64.29 0 67.08 0"/><polygon class="cls-1" points="69.86 0 348.92 307.96 348.92 311.03 67.08 0 69.86 0"/><polygon class="cls-1" points="72.65 0 348.92 304.88 348.92 307.96 69.86 0 72.65 0"/><polygon class="cls-1" points="75.44 0 348.92 301.81 348.92 304.88 72.65 0 75.44 0"/><polygon class="cls-1" points="78.22 0 348.92 298.74 348.92 301.81 75.44 0 78.22 0"/><polygon class="cls-1" points="81.01 0 348.92 295.66 348.92 298.74 78.22 0 81.01 0"/><polygon class="cls-1" points="83.8 0 348.92 292.59 348.92 295.66 81.01 0 83.8 0"/><polygon class="cls-1" points="86.58 0 348.92 289.51 348.92 292.59 83.8 0 86.58 0"/><polygon class="cls-1" points="89.37 0 348.92 286.44 348.92 289.51 86.58 0 89.37 0"/><polygon class="cls-1" points="92.15 0 348.92 283.36 348.92 286.44 89.37 0 92.15 0"/><polygon class="cls-1" points="94.94 0 348.92 280.29 348.92 283.36 92.15 0 94.94 0"/><polygon class="cls-1" points="97.73 0 348.92 277.21 348.92 280.29 94.94 0 97.73 0"/><polygon class="cls-1" points="100.51 0 348.92 274.14 348.92 277.21 97.73 0 100.51 0"/><polygon class="cls-1" points="103.3 0 348.92 271.06 348.92 274.14 100.51 0 103.3 0"/><polygon class="cls-1" points="106.08 0 348.92 267.99 348.92 271.06 103.3 0 106.08 0"/><polygon class="cls-1" points="108.87 0 348.92 264.91 348.92 267.99 106.08 0 108.87 0"/><polygon class="cls-1" points="111.66 0 348.92 261.84 348.92 264.91 108.87 0 111.66 0"/><polygon class="cls-1" points="114.44 0 348.92 258.76 348.92 261.84 111.66 0 114.44 0"/><polygon class="cls-1" points="117.23 0 348.92 255.69 348.92 258.76 114.44 0 117.23 0"/><polygon class="cls-1" points="120.02 0 348.92 252.61 348.92 255.69 117.23 0 120.02 0"/><polygon class="cls-1" points="122.8 0 348.92 249.54 348.92 252.61 120.02 0 122.8 0"/><polygon class="cls-1" points="125.59 0 348.92 246.47 348.92 249.54 122.8 0 125.59 0"/><polygon class="cls-1" points="128.37 0 348.92 243.39 348.92 246.47 125.59 0 128.37 0"/><polygon class="cls-1" points="131.16 0 348.92 240.32 348.92 243.39 128.37 0 131.16 0"/><polygon class="cls-1" points="133.94 0 348.92 237.24 348.92 240.32 131.16 0 133.94 0"/><polygon class="cls-1" points="136.73 0 348.92 234.17 348.92 237.24 133.94 0 136.73 0"/><polygon class="cls-1" points="139.52 0 348.92 231.09 348.92 234.17 136.73 0 139.52 0"/><polygon class="cls-1" points="142.3 0 348.92 228.02 348.92 231.09 139.52 0 142.3 0"/><polygon class="cls-1" points="145.09 0 348.92 224.94 348.92 228.02 142.3 0 145.09 0"/><polygon class="cls-1" points="147.88 0 348.92 221.87 348.92 224.94 145.09 0 147.88 0"/><polygon class="cls-1" points="150.66 0 348.92 218.79 348.92 221.87 147.88 0 150.66 0"/><polygon class="cls-1" points="153.45 0 348.92 215.72 348.92 218.79 150.66 0 153.45 0"/><polygon class="cls-1" points="156.23 0 348.92 212.64 348.92 215.72 153.45 0 156.23 0"/><polygon class="cls-1" points="159.02 0 348.92 209.57 348.92 212.64 156.23 0 159.02 0"/><polygon class="cls-1" points="161.81 0 348.92 206.49 348.92 209.57 159.02 0 161.81 0"/><polygon class="cls-1" points="164.59 0 348.92 203.42 348.92 206.49 161.81 0 164.59 0"/><polygon class="cls-1" points="167.38 0 348.92 200.34 348.92 203.42 164.59 0 167.38 0"/><polygon class="cls-1" points="170.16 0 348.92 197.27 348.92 200.34 167.38 0 170.16 0"/><polygon class="cls-1" points="172.95 0 348.92 194.19 348.92 197.27 170.16 0 172.95 0"/><polygon class="cls-1" points="175.74 0 348.92 191.12 348.92 194.19 172.95 0 175.74 0"/><polygon class="cls-1" points="178.52 0 348.92 188.04 348.92 191.12 175.74 0 178.52 0"/><polygon class="cls-1" points="181.31 0 348.92 184.97 348.92 188.04 178.52 0 181.31 0"/><polygon class="cls-1" points="184.09 0 348.92 181.9 348.92 184.97 181.31 0 184.09 0"/><polygon class="cls-1" points="186.88 0 348.92 178.82 348.92 181.9 184.09 0 186.88 0"/><polygon class="cls-1" points="189.67 0 348.92 175.75 348.92 178.82 186.88 0 189.67 0"/><polygon class="cls-1" points="192.45 0 348.92 172.67 348.92 175.75 189.67 0 192.45 0"/><polygon class="cls-1" points="195.24 0 348.92 169.6 348.92 172.67 192.45 0 195.24 0"/><polygon class="cls-1" points="198.03 0 348.92 166.52 348.92 169.6 195.24 0 198.03 0"/><polygon class="cls-1" points="200.81 0 348.92 163.45 348.92 166.52 198.03 0 200.81 0"/><polygon class="cls-1" points="203.6 0 348.92 160.37 348.92 163.45 200.81 0 203.6 0"/><polygon class="cls-1" points="206.38 0 348.92 157.3 348.92 160.37 203.6 0 206.38 0"/><polygon class="cls-1" points="209.17 0 348.92 154.22 348.92 157.3 206.38 0 209.17 0"/><polygon class="cls-1" points="211.96 0 348.92 151.15 348.92 154.22 209.17 0 211.96 0"/><polygon class="cls-1" points="214.74 0 348.92 148.07 348.92 151.15 211.96 0 214.74 0"/><polygon class="cls-1" points="217.53 0 348.92 145 348.92 148.07 214.74 0 217.53 0"/><polygon class="cls-1" points="220.31 0 348.92 141.92 348.92 145 217.53 0 220.31 0"/><polygon class="cls-1" points="223.1 0 348.92 138.85 348.92 141.92 220.31 0 223.1 0"/><polygon class="cls-1" points="225.89 0 348.92 135.78 348.92 138.85 223.1 0 225.89 0"/><polygon class="cls-1" points="228.67 0 348.92 132.7 348.92 135.78 225.89 0 228.67 0"/><polygon class="cls-1" points="231.46 0 348.92 129.63 348.92 132.7 228.67 0 231.46 0"/><polygon class="cls-1" points="234.25 0 348.92 126.55 348.92 129.63 231.46 0 234.25 0"/><polygon class="cls-1" points="348.92 126.55 234.25 0 348.92 0 348.92 126.55"/></g></g></g></svg>