<svg xmlns="http://www.w3.org/2000/svg" viewBox="0 0 378.8 227.99"><defs><style>.cls-1{fill:#40b881;}</style></defs><g id="Layer_2" data-name="Layer 2"><g id="Layer_1-2" data-name="Layer 1"><path class="cls-1" d="M378.8,0V228H357.41V117.09H285.65V228H264V52.07L235.64,227.18H219.08L182.91,39.82,147.29,227.18H129.91L98.67,42.56,71.06,160.72q-2.22,8.85-4.11,17.07A61.22,61.22,0,0,0,65.07,191a18.24,18.24,0,0,0,2.68,10c1.79,2.83,5.35,5.05,10.73,6.62S91.8,210,102.32,210v18h-6q-15.45,0-26-3.31a37.87,37.87,0,0,1-17-10.41q-6.51-7.11-9-18.81L0,0H23.37L54,155.37,85.58,0h24.14l30,184.55L173.93,3.36H191.6l35.06,181.46L254.43,0h31.22V101.05h71.76V0Z"/></g></g></svg>